<?xml version="1.0" encoding="UTF-8" standalone="no"?>
<svg
   xmlns:dc="http://purl.org/dc/elements/1.1/"
   xmlns:cc="http://creativecommons.org/ns#"
   xmlns:rdf="http://www.w3.org/1999/02/22-rdf-syntax-ns#"
   xmlns:svg="http://www.w3.org/2000/svg"
   xmlns="http://www.w3.org/2000/svg"
   xmlns:sodipodi="http://sodipodi.sourceforge.net/DTD/sodipodi-0.dtd"
   xmlns:inkscape="http://www.inkscape.org/namespaces/inkscape"
   width="1800"
   height="500"
   viewBox="0 0 476.25001 132.29167"
   version="1.1"
   id="svg891"
   inkscape:export-filename="C:\Users\dieck\Desktop\background-logo.png"
   inkscape:export-xdpi="96"
   inkscape:export-ydpi="96"
   sodipodi:docname="UniPointLogo.svg"
   inkscape:version="1.0 (4035a4fb49, 2020-05-01)">
  <defs
     id="defs885" />
  <sodipodi:namedview
     id="base"
     pagecolor="#ffffff"
     bordercolor="#666666"
     borderopacity="1.0"
     inkscape:pageopacity="0.0"
     inkscape:pageshadow="2"
     inkscape:zoom="0.50601292"
     inkscape:cx="853.20559"
     inkscape:cy="332.44578"
     inkscape:document-units="mm"
     inkscape:current-layer="layer1"
     inkscape:document-rotation="0"
     showgrid="false"
     inkscape:pagecheckerboard="true"
     units="px"
     inkscape:window-width="1842"
     inkscape:window-height="1051"
     inkscape:window-x="-9"
     inkscape:window-y="-9"
     inkscape:window-maximized="1" />
  <metadata
     id="metadata888">
    <rdf:RDF>
      <cc:Work
         rdf:about="">
        <dc:format>image/svg+xml</dc:format>
        <dc:type
           rdf:resource="http://purl.org/dc/dcmitype/StillImage" />
        <dc:title />
      </cc:Work>
    </rdf:RDF>
  </metadata>
  <g
     inkscape:label="Layer 1"
     inkscape:groupmode="layer"
     id="layer1">
    <circle
       r="7.4878864"
       cy="46.908199"
       cx="88.32856"
       id="path866"
       style="fill:#4c885d;fill-opacity:1;stroke:#000000;stroke-width:18.8685;stroke-linecap:square;stroke-linejoin:round;stroke-miterlimit:4;stroke-dasharray:none;stroke-opacity:1;paint-order:stroke fill markers" />
    <path
       id="path868"
       d="m 95.376568,117.70954 c 0,-0.19662 0.75459,-2.70325 1.67687,-5.57027 8.093622,-25.16006 13.070592,-55.554163 11.529892,-70.412159 -0.53458,-5.155113 -1.19575,-6.915182 -3.55506,-9.463499 -3.5085,-3.789612 -8.941862,-5.877533 -15.294954,-5.877533 -8.766282,0 -15.452791,4.187813 -19.263341,12.064764 C 66.021667,47.646135 62.479893,63.97814 60.432353,84.7368 l -0.621477,6.300783 H 52.93849 46.066109 l 2.23e-4,-1.552375 c 0.0016,-9.696461 4.302128,-32.598814 9.550199,-50.86283 3.880885,-13.506069 5.084284,-16.279269 8.393795,-19.343298 3.90412,-3.614521 8.704163,-4.573865 19.367302,-3.870774 3.485505,0.229819 9.681987,0.574304 13.76995,0.765524 4.087972,0.191215 8.512492,0.520172 9.832272,0.731009 8.87513,1.41781 13.69687,5.62085 15.84069,13.808101 2.36733,9.040862 0.42566,27.952342 -5.74358,55.941488 -1.41684,6.428002 -6.23852,25.855072 -7.45646,30.042852 l -0.39836,1.36973 h -6.92279 c -4.271312,0 -6.922829,-0.13691 -6.922829,-0.35747 z"
       style="fill:#4c885d;fill-opacity:1;stroke:#000000;stroke-width:18.8685;stroke-linecap:square;stroke-linejoin:round;stroke-miterlimit:4;stroke-dasharray:none;stroke-opacity:1;paint-order:stroke fill markers" />
    <path
       id="path870"
       d="M 48.919905,116.94908 C 34.058324,116.05458 25.639961,113.17897 20.863351,107.36534 18.051262,103.94273 17.79687,103.0295 17.637812,95.785998 17.31638,81.148659 20.013364,61.947553 26.576924,32.144255 l 3.922689,-17.811847 h 7.052721 c 3.878993,0 7.052722,0.135422 7.052722,0.300946 0,0.165522 -1.217412,5.712949 -2.705351,12.32762 -7.303086,32.466006 -8.974617,42.677488 -9.56681,58.444234 -0.363832,9.686827 -0.241414,12.504273 3.079519,15.825202 0.884528,0.88453 7.054863,4.02113 10.595518,4.22019 l 3.312559,0.18623 v 0 c 10.182583,-0.0186 14.604786,-0.71492 18.62698,-4.55143 1.66097,-1.584309 2.620932,-2.985129 4.328073,-6.315767 3.577153,-6.979075 4.958818,-11.945424 6.507565,-23.391243 0.534905,-3.953179 1.030374,-7.393057 1.101029,-7.644174 0.09686,-0.344219 1.794263,-0.456578 6.897299,-0.456578 3.722851,0 6.768819,0.141644 6.768819,0.31478 0,0.173135 -0.580552,3.58378 -1.290123,7.579205 -3.787318,21.325656 -8.221833,35.099197 -12.518037,38.880877 -2.223314,1.95703 -8.271806,4.91355 -11.942864,5.83767 -2.861987,0.72048 -9.888121,1.48238 -12.784194,1.38633 -0.803572,-0.0267 -3.546385,-0.17398 -6.095133,-0.32739 z"
       style="fill:#4c885d;fill-opacity:1;stroke:#000000;stroke-width:18.8685;stroke-linecap:square;stroke-linejoin:round;stroke-miterlimit:4;stroke-dasharray:none;stroke-opacity:1;paint-order:stroke fill markers"
       sodipodi:nodetypes="cssscsscsssccsssssscssccc" />
    <text
       xml:space="preserve"
       style="font-style:normal;font-variant:normal;font-weight:bold;font-stretch:normal;font-size:80.5127px;line-height:1.25;font-family:'Poor Richard';-inkscape-font-specification:'Poor Richard Bold';fill:#646464;fill-opacity:1;stroke:none;stroke-width:2.01282;"
       x="141.37291"
       y="71.629036"
       id="text905"><tspan
         sodipodi:role="line"
         id="tspan903"
         x="141.37291"
         y="71.629036"
         style="font-style:italic;font-variant:normal;font-weight:bold;font-stretch:normal;font-family:Ebrima;-inkscape-font-specification:'Ebrima Bold Italic';fill:#646464;fill-opacity:1;stroke-width:2.01282;">uniPoint</tspan></text>
    <text
       xml:space="preserve"
       style="font-weight:bold;font-size:16.1128px;line-height:1.25;font-family:'Perpetua Titling MT';-inkscape-font-specification:'Perpetua Titling MT Bold';fill:#ffffff;fill-opacity:1;stroke:#000000;stroke-width:1.01245;stroke-miterlimit:4;stroke-dasharray:none;stroke-opacity:1"
       x="314.27475"
       y="95.333031"
       id="text1470"><tspan
         sodipodi:role="line"
         id="tspan1468"
         x="314.27475"
         y="95.333031"
         style="font-style:normal;font-variant:normal;font-weight:bold;font-stretch:normal;font-family:sans-serif;-inkscape-font-specification:'sans-serif Bold';fill:#ffffff;fill-opacity:1;stroke:#000000;stroke-width:1.01245;stroke-miterlimit:4;stroke-dasharray:none;stroke-opacity:1">DOCUMENT</tspan></text>
    <text
       id="text1470-1"
       y="112.60377"
       x="352.62985"
       style="font-weight:bold;font-size:16.1128px;line-height:1.25;font-family:'Perpetua Titling MT';-inkscape-font-specification:'Perpetua Titling MT Bold';fill:#ffffff;fill-opacity:1;stroke:#000000;stroke-width:1.01245;stroke-miterlimit:4;stroke-dasharray:none;stroke-opacity:1"
       xml:space="preserve"><tspan
         style="font-style:normal;font-variant:normal;font-weight:bold;font-stretch:normal;font-family:sans-serif;-inkscape-font-specification:'sans-serif Bold';fill:#ffffff;fill-opacity:1;stroke:#000000;stroke-width:1.01245;stroke-miterlimit:4;stroke-dasharray:none;stroke-opacity:1"
         y="112.60377"
         x="352.62985"
         id="tspan1468-1"
         sodipodi:role="line">VIEWER</tspan></text>
  </g>
</svg>
